<?xml version="1.0" encoding="utf-8"?>
<!-- Generator: Adobe Illustrator 15.1.0, SVG Export Plug-In . SVG Version: 6.00 Build 0)  -->
<!DOCTYPE svg PUBLIC "-//W3C//DTD SVG 1.1//EN" "http://www.w3.org/Graphics/SVG/1.1/DTD/svg11.dtd">
<svg version="1.1" id="Layer_1" xmlns="http://www.w3.org/2000/svg" xmlns:xlink="http://www.w3.org/1999/xlink" x="0px" y="0px"
	 width="108px" height="108.006px" viewBox="0 0 108 108.006" enable-background="new 0 0 108 108.006" xml:space="preserve">
<path fill="#B80000" d="M54.042,31.114c-0.025,0-0.05,0.002-0.076,0.002c12.554,0.03,22.721,10.244,22.721,22.841
	c0,12.615-10.197,22.843-22.777,22.843c-12.578,0-22.776-10.229-22.776-22.843c0-2.363,0.358-4.643,1.022-6.787
	c-0.677,2.167-1.042,4.475-1.042,6.869c0,12.611,10.234,22.85,22.927,22.85c12.61,0,22.847-10.238,22.847-22.85
	C76.889,41.349,66.652,31.114,54.042,31.114z"/>
<path fill="#B80000" d="M105.951,41.76L108,41.349c-1.393-5.24-3.686-10.318-6.553-14.985c-5.645,3.032-7.448-0.408-13.182-6.139
	c-5.648-6.059-10.398-8.353-6.879-14.004c-4.666-2.536-9.662-4.339-14.902-5.403c-1.635,6.059-5.156,5.32-13.181,5.32
	C47.082,6.139,41.759,7.613,40.04,0c-5.076,1.555-9.824,3.848-14.328,6.877c3.028,5.403,0.08,7.451-5.649,13.182
	c-5.651,5.651-8.105,8.435-13.674,5.078c-2.456,4.667-4.259,9.824-5.404,15.065c5.976,1.72,5.24,5.24,5.157,13.43
	C6.059,61.739,6.306,65.428,0,66.981c1.475,5.156,3.767,10.067,6.632,14.571c5.406-3.026,7.371,0,13.02,5.812
	c5.568,5.816,8.27,8.275,4.914,13.845c4.667,2.618,9.662,4.498,14.821,5.649c1.801-6.059,5.24-5.242,13.263-5.159
	s11.711,0,13.184,6.308c5.078-1.479,9.907-3.688,14.412-6.639c-2.95-5.485,0.082-7.448,5.811-13.1
	c5.813-5.65,8.269-8.352,13.754-4.912c2.621-4.67,4.422-9.741,5.65-14.984c-5.977-1.803-5.156-5.32-4.995-13.43
	C100.632,46.835,99.65,43.234,105.951,41.76z M54.042,86.383c-17.932,0-32.426-14.495-32.426-32.343
	c0-17.932,14.494-32.423,32.426-32.423c17.851,0,32.342,14.491,32.342,32.423C86.384,71.888,71.893,86.383,54.042,86.383z"/>
<path fill="#B80000" d="M54.042,26.529c-15.231,0-27.513,12.281-27.512,27.511c0,15.154,12.282,27.513,27.512,27.513
	c15.146,0,27.509-12.358,27.509-27.513C81.551,38.81,69.188,26.529,54.042,26.529z M54.042,76.89
	c-12.693,0-22.927-10.238-22.927-22.85c0-2.395,0.365-4.702,1.042-6.869c2.882-9.302,11.531-16.056,21.753-16.056
	c0.019,0,0.037,0.001,0.056,0.001c0.025,0,0.05-0.002,0.076-0.002c12.61,0,22.847,10.235,22.847,22.926
	C76.889,66.651,66.652,76.89,54.042,76.89z"/>
<path fill="#B80000" d="M53.966,31.116c-0.019,0-0.037-0.001-0.056-0.001c-10.222,0-18.872,6.754-21.753,16.056
	C35.059,37.875,43.701,31.149,53.966,31.116z"/>
</svg>
