<?xml version="1.0" encoding="utf-8"?>
<!-- Generator: Adobe Illustrator 15.1.0, SVG Export Plug-In . SVG Version: 6.00 Build 0)  -->
<!DOCTYPE svg PUBLIC "-//W3C//DTD SVG 1.1//EN" "http://www.w3.org/Graphics/SVG/1.1/DTD/svg11.dtd">
<svg version="1.1" id="Layer_1" xmlns="http://www.w3.org/2000/svg" xmlns:xlink="http://www.w3.org/1999/xlink" x="0px" y="0px"
	 width="190px" height="37.037px" viewBox="0 0 190 37.037" enable-background="new 0 0 190 37.037" xml:space="preserve">
<path fill-rule="evenodd" clip-rule="evenodd" fill="#B80000" d="M32.979,28.217c0.866-1.543,1.461-3.219,1.867-4.951
	c-1.975-0.596-1.704-1.758-1.65-4.438c0.054-2.679-0.271-3.868,1.812-4.355l0.677-0.136c-0.46-1.731-1.217-3.409-2.165-4.951
	c-1.866,1.002-2.462-0.135-4.355-2.028c-1.867-2.002-3.436-2.76-2.273-4.627C25.35,1.893,23.7,1.297,21.968,0.946
	c-0.541,2.002-1.704,1.758-4.355,1.758c-2.056,0-3.814,0.487-4.383-2.028c-1.677,0.514-3.246,1.271-4.734,2.272
	c1,1.785,0.026,2.462-1.867,4.355C4.762,9.17,3.951,10.09,2.111,8.981c-0.812,1.542-1.407,3.246-1.786,4.978
	c1.975,0.568,1.731,1.731,1.704,4.438C2.002,21.075,2.083,22.293,0,22.807c0.487,1.703,1.245,3.326,2.191,4.814
	c1.786-1,2.436,0,4.302,1.92c1.84,1.922,2.732,2.734,1.624,4.574c1.542,0.865,3.192,1.486,4.897,1.867
	c0.595-2.002,1.731-1.732,4.382-1.705c2.651,0.027,3.869,0,4.355,2.084c1.678-0.488,3.274-1.219,4.762-2.193
	c-0.974-1.813,0.027-2.461,1.921-4.328C30.354,27.973,31.167,27.081,32.979,28.217L32.979,28.217z M17.856,7.818
	c5.898,0,10.686,4.788,10.686,10.713c0,5.897-4.788,10.687-10.686,10.687c-5.925,0-10.714-4.789-10.714-10.687
	C7.142,12.606,11.931,7.818,17.856,7.818L17.856,7.818z M17.856,9.441c5.004,0,9.09,4.058,9.09,9.09c0,5.007-4.085,9.091-9.09,9.091
	c-5.032,0-9.09-4.084-9.09-9.091C8.766,13.499,12.824,9.441,17.856,9.441L17.856,9.441z M17.856,10.956
	c4.167,0,7.548,3.382,7.548,7.575c0,4.167-3.381,7.55-7.548,7.55c-4.194,0-7.575-3.383-7.575-7.55
	C10.281,14.337,13.662,10.956,17.856,10.956L17.856,10.956z"/>
<path fill="#B80000" d="M46.344,13.297l1.38-5.438h12.147l-0.92,4.95l-5.005,0.189l-0.893,4.572l5.032,0.162L57.3,21.926
	l-5.086,0.217l-0.812,4.111l5.086,0.488l-0.704,4.221H45.072l1.867-16.341l4.897-1.542L46.344,13.297z M69.691,10.456L65.66,7.859
	l8.143-1.056c1.867,0.975,3.246,2.002,4.166,3.03c0.893,1.028,1.353,2.164,1.353,3.354c0,2.219-1.65,5.194-4.924,8.875
	c1.353,1.379,2.056,2.732,2.056,4.084c0,1.596-0.947,3.191-2.786,4.816H61.115l2.516-20.426L69.691,10.456z M70.692,11.133
	l-2.029,10.334c1.461-1.542,2.543-2.841,3.3-3.923c0.785-1.082,1.164-2.137,1.164-3.164c0-1.272-0.758-2.354-2.272-3.221
	L70.692,11.133z M68.42,22.739l-1.434,7.549c0.919-0.92,1.623-1.65,2.083-2.219c0.487-0.57,0.838-1.082,1.109-1.516
	c0.243-0.434,0.379-0.811,0.379-1.137c0-0.217-0.054-0.432-0.163-0.621c-0.027-0.109-0.082-0.191-0.162-0.271
	c-0.054-0.08-0.135-0.189-0.244-0.324l-0.649-0.623L68.42,22.739z M90.469,10.077l-1.218-0.812l-1.082-0.703l-1.244-0.703
	l7.629-1.786c0.622,0.325,1.298,0.813,2.029,1.435c0.73,0.649,1.352,1.406,1.894,2.271c0.54,0.894,0.812,1.786,0.812,2.652
	c0,1.108-0.108,2.164-0.298,3.165c-0.217,1.027-0.541,2.002-0.946,2.948c-0.812,1.84-2.03,3.815-3.599,5.899h-5.952l-1.244,6.52
	h-5.626l2.488-20.886H90.469z M88.602,23.469c0.731-0.84,1.434-1.73,2.11-2.732c0.623-0.946,1.191-1.975,1.651-3.111
	c0.433-1.082,0.648-2.11,0.648-3.058c0-1.731-0.757-3.138-2.245-4.221L88.602,23.469z M110.921,10.943
	c-0.217-0.244-0.459-0.514-0.757-0.784c-0.271-0.271-0.596-0.569-1.001-0.894c-0.379-0.324-0.73-0.596-1.029-0.838
	c-0.324-0.244-0.567-0.433-0.783-0.568l7.466-1.406c3.03,2.948,4.519,6.356,4.519,10.198c0,1.731-0.298,3.463-0.865,5.195
	c-0.569,1.73-1.326,3.354-2.246,4.896c-0.92,1.541-1.893,2.949-2.921,4.221h-8.008c-1.028-1.516-1.813-3.111-2.274-4.789
	c-0.27-0.893-0.459-1.73-0.567-2.598c-0.135-0.838-0.189-1.73-0.189-2.623c0-1.327,0.135-2.625,0.406-3.923
	c0.297-1.271,0.703-2.435,1.244-3.463c0.514-1.028,1.164-1.894,1.866-2.624H110.921z M111.273,11.457
	c-0.704,0.92-1.381,2.489-2.029,4.654c-0.649,2.164-0.974,4.354-0.974,6.518c0,2.381,0.404,4.385,1.218,6.088
	c0.351-0.541,0.702-1.244,1.081-2.057c0.433-0.945,0.865-1.92,1.244-2.977c0.189-0.539,0.38-1.107,0.569-1.703
	c0.161-0.568,0.324-1.189,0.485-1.839c0.271-1.244,0.435-2.409,0.435-3.491C113.303,14.325,112.626,12.566,111.273,11.457
	L111.273,11.457z"/>
<path fill="#C9C9C9" d="M124.611,12.076h13.661v15.366h-4.059V15.377h-5.519v12.065h-4.084V12.076z M145.739,16.783l-3.706-0.677
	c0.405-1.487,1.136-2.597,2.137-3.301c1.028-0.702,2.518-1.082,4.519-1.082c1.813,0,3.166,0.217,4.059,0.649s1.514,0.975,1.866,1.65
	c0.378,0.649,0.541,1.866,0.541,3.625l-0.026,4.762c0,1.353,0.053,2.326,0.189,2.975c0.135,0.65,0.378,1.326,0.73,2.057h-4.032
	c-0.108-0.271-0.243-0.648-0.378-1.191c-0.082-0.242-0.108-0.404-0.163-0.486c-0.676,0.678-1.434,1.191-2.218,1.543
	c-0.785,0.324-1.623,0.486-2.543,0.486c-1.57,0-2.814-0.434-3.734-1.271c-0.92-0.865-1.353-1.947-1.353-3.272
	c0-0.866,0.189-1.624,0.622-2.327c0.406-0.676,0.975-1.189,1.731-1.542c0.759-0.378,1.84-0.676,3.247-0.946
	c1.894-0.38,3.219-0.704,3.949-1.001v-0.406c0-0.784-0.216-1.353-0.594-1.677c-0.38-0.325-1.11-0.515-2.166-0.515
	c-0.729,0-1.298,0.162-1.703,0.433C146.308,15.565,145.983,16.053,145.739,16.783L145.739,16.783z M151.177,20.083
	c-0.54,0.164-1.352,0.381-2.488,0.623s-1.866,0.461-2.22,0.703c-0.512,0.379-0.783,0.838-0.783,1.435
	c0,0.568,0.217,1.055,0.622,1.46c0.433,0.434,0.974,0.623,1.624,0.623c0.757,0,1.434-0.244,2.109-0.705
	c0.486-0.376,0.812-0.837,0.975-1.351c0.107-0.353,0.161-1.028,0.161-2.003V20.083z M159.05,12.076h3.788v2.271
	c0.514-0.784,1.163-1.406,2.002-1.893c0.838-0.487,1.785-0.731,2.813-0.731c1.785,0,3.301,0.704,4.519,2.111
	c1.244,1.406,1.894,3.354,1.894,5.843c0,2.568-0.649,4.572-1.894,5.979c-1.244,1.434-2.788,2.137-4.547,2.137
	c-0.864,0-1.621-0.162-2.325-0.486c-0.677-0.352-1.407-0.92-2.164-1.758v7.764h-4.086V12.076z M163.081,19.516
	c0,1.703,0.351,3.002,1.028,3.813c0.677,0.84,1.515,1.245,2.516,1.245c0.947,0,1.732-0.379,2.354-1.136
	c0.622-0.759,0.946-2.003,0.946-3.735c0-1.622-0.324-2.813-0.974-3.597c-0.649-0.757-1.462-1.163-2.408-1.163
	c-1.001,0-1.813,0.38-2.488,1.163C163.405,16.864,163.081,18,163.081,19.516L163.081,19.516z M177.122,12.076h4.058v6.276
	c0.677-0.055,1.137-0.271,1.434-0.623c0.271-0.324,0.623-1.055,1.002-2.19c0.514-1.542,1.109-2.489,1.705-2.922
	c0.622-0.434,1.432-0.649,2.434-0.649c0.326,0,0.866,0.026,1.623,0.081v2.706c-1.055,0-1.758,0.08-2.056,0.297
	c-0.298,0.216-0.622,0.838-0.974,1.893c-0.461,1.408-1.136,2.3-2.029,2.625c1.271,0.354,2.354,1.461,3.246,3.327
	c0.055,0.109,0.109,0.219,0.162,0.326l2.273,4.22h-4.355l-2.029-4.437c-0.433-0.894-0.785-1.462-1.083-1.733
	c-0.298-0.242-0.757-0.377-1.353-0.377v6.547h-4.058V12.076z"/>
</svg>
